# xmcd
#
# Track frame offsets:
#	150
#	15662
#	25100
#	39895
#	55107
#	70812
#	85650
#	97407
#	112405
#	125942
#
# Disc length: 1976 seconds
#
# Revision: 2
# Processed by: cddbd v1.5.1PL0 Copyright (c) Steve Scherf et al.
# Submitted via: audiograbber 1.82.02
#
DISCID=8707b60a
DTITLE=Jimmie Dale Gilmore - Jimmie Dale Gilmore
DYEAR=1989
DGENRE=Country
TTITLE0=Honky Tonk Song
TTITLE1=The Doors Are Open Wide
TTITLE2=See The Way
TTITLE3=Beautiful Rose
TTITLE4=Dallas
TTITLE5=Up to You
TTITLE6=Red Cheverolet
TTITLE7=Deep Eddy Blues
TTITLE8=That Hardwood Floor
TTITLE9=When The Nights Are Cold
EXTD=
EXTT0=
EXTT1=
EXTT2=
EXTT3=
EXTT4=
EXTT5=
EXTT6=
EXTT7=
EXTT8=
EXTT9=
PLAYORDER=
